HIERARCHY
ROOT Root
{
	OFFSET 0.00000 0.00000 0.00000
	CHANNELS 6 Xposition Yposition Zposition Zrotation Xrotation Yrotation
	JOINT Hips
	{
		OFFSET 0 0 0	
		CHANNELS 3 Zrotation Xrotation Yrotation
		JOINT Spine
		{
			OFFSET 0 4 0	
			CHANNELS 3 Zrotation Xrotation Yrotation
			JOINT Spine1
			{
				OFFSET 0 19.4 0	
				CHANNELS 3 Zrotation Xrotation Yrotation
				JOINT Spine2
				{
					OFFSET 0 16.6 0	
					CHANNELS 3 Zrotation Xrotation Yrotation
					JOINT LeftCollar
					{
						OFFSET 0 10 0	
						CHANNELS 3 Zrotation Xrotation Yrotation
						JOINT LeftArm
						{
							OFFSET 15.6 -2 3	
							CHANNELS 3 Zrotation Xrotation Yrotation
							JOINT LeftForeArm
							{
								OFFSET 3.5 -27 -1	
								CHANNELS 3 Zrotation Xrotation Yrotation
								JOINT LeftHand
								{
									OFFSET 1 -27 1	
									CHANNELS 3 Zrotation Xrotation Yrotation
									End Site
									{
										OFFSET 0 -15 0
									}
								}
							}
						}
					}
					JOINT RightCollar
					{
						OFFSET 0 10 0	
						CHANNELS 3 Zrotation Xrotation Yrotation
						JOINT RightArm
						{
							OFFSET -15.6 -2 3	
							CHANNELS 3 Zrotation Xrotation Yrotation
							JOINT RightForeArm
							{
								OFFSET -3.5 -27 -1	
								CHANNELS 3 Zrotation Xrotation Yrotation
								JOINT RightHand
								{
									OFFSET -1 -27 1	
									CHANNELS 3 Zrotation Xrotation Yrotation
									End Site
									{
										OFFSET 0 -15 0
									}
								}
							}
						}
					}
					JOINT Neck
					{
						OFFSET 0 10 0	
						CHANNELS 3 Zrotation Xrotation Yrotation
						JOINT Head
						{
							OFFSET 0 12.7 3	
							CHANNELS 3 Zrotation Xrotation Yrotation
							End Site
							{
								OFFSET 0 12.7 3
							}
						}
					}
				}
			}
		}
	}
	JOINT LeftHip
	{
		OFFSET 0 0 0	
		CHANNELS 3 Zrotation Xrotation Yrotation
		JOINT LeftUpLeg
		{
			OFFSET 8.8 -6 0	
			CHANNELS 3 Zrotation Xrotation Yrotation
			JOINT LeftLeg
			{
				OFFSET 0 -39 2	
				CHANNELS 3 Zrotation Xrotation Yrotation
				JOINT LeftFoot
				{
					OFFSET 0 -43 -2	
					CHANNELS 3 Zrotation Xrotation Yrotation
					JOINT LeftFootFront
					{
						OFFSET 0 -7 8.5	
						CHANNELS 3 Zrotation Xrotation Yrotation
						End Site
						{
							OFFSET 0 -0.5 9
						}
					}
				}
				JOINT LeftHeel
				{
					OFFSET 0 -43 -2	
					CHANNELS 3 Zrotation Xrotation Yrotation
					End Site
					{
						OFFSET 0 -7.5 -5
					}
				}
			}
		}
	}
	JOINT RightHip
	{
		OFFSET 0 0 0	
		CHANNELS 3 Zrotation Xrotation Yrotation
		JOINT RightUpLeg
		{
			OFFSET -8.8 -6 0	
			CHANNELS 3 Zrotation Xrotation Yrotation
			JOINT RightLeg
			{
				OFFSET 0 -39 2	
				CHANNELS 3 Zrotation Xrotation Yrotation
				JOINT RightFoot
				{
					OFFSET 0 -43 -2	
					CHANNELS 3 Zrotation Xrotation Yrotation
					JOINT RightFootFront
					{
						OFFSET 0 -7 8.5	
						CHANNELS 3 Zrotation Xrotation Yrotation
						End Site
						{
							OFFSET 0 -0.5 9
						}
					}
				}
				JOINT RightHeel
				{
					OFFSET 0 -43 -2	
					CHANNELS 3 Zrotation Xrotation Yrotation
					End Site
					{
						OFFSET 0 -7.5 -5
					}
				}
			}
		}
	}
}
MOTION
Frames: 9
Frame Time: 0.025
0 95.743 0 -0 0 -0 12.139 -0.32599 -85.175 9.8594 -6.2284 -1.4084 9.8594 -6.2284 -1.4084 8.2866 -5.217 -1.2549 -0 0 -0 -4.1925 -50.531 -24.675 -105.65 -43.284 143.98 -0 0 -0 -0 0 -0 5.0414 -40.537 35.124 51.211 -64.255 1.3869 -0 0 -0 -4.3466 2.4123 -5.1066 3.993 -2.6956 -6.7495 12.139 -0.32599 -85.175 -5.5691 -5.9904 -7.7878 -0 0 -0 -0 0 -0 -0 0 -0 -0 0 -0 12.139 -0.32599 -85.175 -1.0733 -20.983 -2.7369 -0 0 -0 -0 0 -0 -0 0 -0 -0 0 -0 
0 95.743 0 -0 0 -0 12.393 -0.29643 -85.147 9.9962 -6.308 -1.4665 9.9962 -6.308 -1.4665 8.4018 -5.283 -1.3056 -0 0 -0 -4.0839 -50.458 -24.552 -105.27 -43.353 143.78 -0 0 -0 -0 0 -0 5.0062 -40.292 35.168 51.159 -64.223 1.4353 -0 0 -0 -4.4752 2.3886 -4.9846 3.981 -2.7775 -6.6945 12.393 -0.29643 -85.147 -5.6447 -6.2073 -7.7227 -0 0 -0 -0 0 -0 -0 0 -0 -0 0 -0 12.393 -0.29643 -85.147 -1.1732 -21.092 -2.7805 -0 0 -0 -0 0 -0 -0 0 -0 -0 0 -0 
0 95.743 0 -0 0 -0 12.633 -0.25488 -85.173 10.115 -6.3542 -1.4509 10.115 -6.3542 -1.4509 8.5011 -5.3219 -1.294 -0 0 -0 -4.0384 -50.444 -24.735 -105.07 -43.48 143.39 -0 0 -0 -0 0 -0 4.9151 -40.13 34.918 51.351 -64.174 1.8013 -0 0 -0 -4.5702 2.3084 -4.9501 3.9822 -2.8945 -6.6601 12.633 -0.25488 -85.173 -5.7067 -6.4059 -7.655 -0 0 -0 -0 0 -0 -0 0 -0 -0 0 -0 12.633 -0.25488 -85.173 -1.2261 -21.228 -2.7592 -0 0 -0 -0 0 -0 -0 0 -0 -0 0 -0 
0 95.743 0 -0 0 -0 12.83 -0.21686 -85.232 10.211 -6.3742 -1.3789 10.211 -6.3742 -1.3789 8.5814 -5.3394 -1.2345 -0 0 -0 -4.1135 -50.435 -25.165 -105.02 -43.61 142.92 -0 0 -0 -0 0 -0 4.7827 -40.014 34.382 51.783 -64.057 2.4849 -0 0 -0 -4.6308 2.1973 -4.995 3.9962 -3.0259 -6.653 12.83 -0.21686 -85.232 -5.7596 -6.5847 -7.6279 -0 0 -0 -0 0 -0 -0 0 -0 -0 0 -0 12.83 -0.21686 -85.232 -1.2442 -21.372 -2.7295 -0 0 -0 -0 0 -0 -0 0 -0 -0 0 -0 
0 95.743 0 -0 0 -0 12.968 -0.19273 -85.297 10.329 -6.3993 -1.3662 10.329 -6.3993 -1.3662 8.6803 -5.3605 -1.225 -0 0 -0 -4.1063 -50.295 -25.308 -105.04 -43.682 142.47 -0 0 -0 -0 0 -0 4.7116 -39.8 34.011 52.3 -63.922 3.3118 -0 0 -0 -4.7386 2.1336 -4.9258 3.9848 -3.1082 -6.5861 12.968 -0.19273 -85.297 -5.8064 -6.7241 -7.6377 -0 0 -0 -0 0 -0 -0 0 -0 -0 0 -0 12.968 -0.19273 -85.297 -1.2578 -21.473 -2.7228 -0 0 -0 -0 0 -0 -0 0 -0 -0 0 -0 
0 95.743 0 -0 0 -0 13.049 -0.17991 -85.362 10.473 -6.4215 -1.4091 10.473 -6.4215 -1.409 8.8015 -5.3785 -1.2624 -0 0 -0 -4.0815 -50.037 -25.191 -105.11 -43.693 142.07 -0 0 -0 -0 0 -0 4.6683 -39.553 33.865 52.756 -63.797 4.0961 -0 0 -0 -4.8994 2.1183 -4.7677 3.9462 -3.1337 -6.4813 13.049 -0.17991 -85.362 -5.8356 -6.8029 -7.6324 -0 0 -0 -0 0 -0 -0 0 -0 -0 0 -0 13.049 -0.17991 -85.362 -1.2682 -21.497 -2.7069 -0 0 -0 -0 0 -0 -0 0 -0 -0 0 -0 
0 95.743 0 -0 0 -0 13.119 -0.18533 -85.454 10.579 -6.4213 -1.391 10.579 -6.4213 -1.391 8.8903 -5.3784 -1.248 -0 0 -0 -4.257 -49.785 -25.346 -105.21 -43.698 141.7 -0 0 -0 -0 0 -0 4.5802 -39.451 33.577 53.122 -63.651 4.7993 -0 0 -0 -5.0042 2.1056 -4.7414 3.9292 -3.1443 -6.4504 13.119 -0.18533 -85.454 -5.8539 -6.8733 -7.5288 -0 0 -0 -0 0 -0 -0 0 -0 -0 0 -0 13.119 -0.18533 -85.454 -1.2748 -21.486 -2.6823 -0 0 -0 -0 0 -0 -0 0 -0 -0 0 -0 
0 95.743 0 -0 0 -0 13.264 -0.21213 -85.608 10.638 -6.4187 -1.2626 10.638 -6.4187 -1.2626 8.9389 -5.3776 -1.1406 -0 0 -0 -4.655 -49.572 -25.896 -105.31 -43.732 141.35 -0 0 -0 -0 0 -0 4.4076 -39.519 33.031 53.445 -63.471 5.4566 -0 0 -0 -5.041 2.0944 -4.906 3.9365 -3.163 -6.5117 13.264 -0.21213 -85.608 -5.8862 -7.0344 -7.3184 -0 0 -0 -0 0 -0 -0 0 -0 -0 0 -0 13.264 -0.21213 -85.608 -1.2936 -21.517 -2.6378 -0 0 -0 -0 0 -0 -0 0 -0 -0 0 -0 
0 95.743 0 -0 0 -0 13.516 -0.22465 -85.842 10.713 -6.4378 -1.0788 10.713 -6.4378 -1.0788 9.0002 -5.3959 -0.98708 -0 0 -0 -5.1074 -49.346 -26.509 -105.44 -43.797 140.95 -0 0 -0 -0 0 -0 4.1699 -39.66 32.451 53.794 -63.254 6.1006 -0 0 -0 -5.0957 2.1019 -5.1296 3.9372 -3.1856 -6.5894 13.516 -0.22465 -85.842 -5.9221 -7.3146 -7.0491 -0 0 -0 -0 0 -0 -0 0 -0 -0 0 -0 13.516 -0.22465 -85.842 -1.3096 -21.64 -2.4696 -0 0 -0 -0 0 -0 -0 0 -0 -0 0 -0 
